<?xml version="1.0" encoding="UTF-8"?><svg xmlns="http://www.w3.org/2000/svg" xmlns:xlink="http://www.w3.org/1999/xlink" fill-opacity="1" color-rendering="auto" color-interpolation="auto" text-rendering="auto" stroke="black" stroke-linecap="square" width="663" stroke-miterlimit="10" shape-rendering="auto" stroke-opacity="1" fill="black" stroke-dasharray="none" font-weight="normal" stroke-width="1" height="721" font-family="'Dialog'" font-style="normal" stroke-linejoin="miter" font-size="12px" stroke-dashoffset="0" image-rendering="auto">
  <!--Generated by ySVG 2.5-->
  <defs id="genericDefs"/>
  <g>
    <defs id="defs1">
      <clipPath clipPathUnits="userSpaceOnUse" id="clipPath1">
        <path d="M0 0 L663 0 L663 721 L0 721 L0 0 Z"/>
      </clipPath>
      <clipPath clipPathUnits="userSpaceOnUse" id="clipPath2">
        <path d="M-21 153 L642 153 L642 874 L-21 874 L-21 153 Z"/>
      </clipPath>
    </defs>
    <g fill="rgb(255,204,0)" text-rendering="geometricPrecision" shape-rendering="geometricPrecision" transform="matrix(1,0,0,1,21,-153)" stroke="rgb(255,204,0)">
      <rect x="236.5625" width="302" height="65.2" y="614.7" clip-path="url(#clipPath2)" stroke="none"/>
    </g>
    <g fill="yellow" text-rendering="geometricPrecision" shape-rendering="geometricPrecision" transform="matrix(1,0,0,1,21,-153)" stroke="yellow">
      <rect x="236.5625" width="1" height="65.2" y="614.7" clip-path="url(#clipPath2)" stroke="none"/>
      <rect x="237.5625" width="300" height="1" y="614.7" clip-path="url(#clipPath2)" stroke="none"/>
      <rect x="237.5625" y="678.9" clip-path="url(#clipPath2)" fill="rgb(178,142,0)" width="301" height="1" stroke="none"/>
      <rect x="537.5625" y="614.7" clip-path="url(#clipPath2)" fill="rgb(178,142,0)" width="1" height="64.2" stroke="none"/>
    </g>
    <g text-rendering="geometricPrecision" stroke-miterlimit="1.45" shape-rendering="geometricPrecision" font-family="sans-serif" transform="matrix(1,0,0,1,21,-153)" stroke-linecap="butt">
      <text x="298.8398" xml:space="preserve" y="652.0139" clip-path="url(#clipPath2)" stroke="none">Send SQL command to database</text>
    </g>
    <g fill="rgb(255,204,0)" text-rendering="geometricPrecision" shape-rendering="geometricPrecision" transform="matrix(1,0,0,1,21,-153)" stroke="rgb(255,204,0)">
      <rect x="163.7725" width="447.58" height="43" y="528.6" clip-path="url(#clipPath2)" stroke="none"/>
    </g>
    <g text-rendering="geometricPrecision" stroke-miterlimit="1.45" shape-rendering="geometricPrecision" transform="matrix(1,0,0,1,21,-153)" stroke-linecap="butt">
      <rect fill="none" x="163.7725" width="447.58" height="43" y="528.6" clip-path="url(#clipPath2)"/>
      <text x="285.2988" xml:space="preserve" y="554.0375" clip-path="url(#clipPath2)" font-family="'Consolas'" stroke="none">DB.exec(sqlcommand, [username])</text>
    </g>
    <g fill="rgb(255,204,0)" text-rendering="geometricPrecision" shape-rendering="geometricPrecision" transform="matrix(1,0,0,1,21,-153)" stroke="rgb(255,204,0)">
      <rect x="-5.2475" width="324.54" height="43" y="464.6" clip-path="url(#clipPath2)" stroke="none"/>
    </g>
    <g text-rendering="geometricPrecision" stroke-miterlimit="1.45" shape-rendering="geometricPrecision" transform="matrix(1,0,0,1,21,-153)" stroke-linecap="butt">
      <rect fill="none" x="-5.2475" width="324.54" height="43" y="464.6" clip-path="url(#clipPath2)"/>
      <text x="100.9424" xml:space="preserve" y="484.0375" clip-path="url(#clipPath2)" font-family="'Consolas'" stroke="none">var sqlcommand = </text>
      <text x="8.5752" xml:space="preserve" y="496.0375" clip-path="url(#clipPath2)" font-family="'Consolas'" stroke="none">"SELECT * FROM usernames WHERE username = ?;"</text>
    </g>
    <g fill="rgb(255,204,0)" text-rendering="geometricPrecision" shape-rendering="geometricPrecision" transform="matrix(1,0,0,1,21,-153)" stroke="rgb(255,204,0)">
      <path d="M317.5625 759.905 L358.5675 718.9 L416.5575 718.9 L457.5625 759.905 L457.5625 817.895 L416.5575 858.9 L358.5675 858.9 L317.5625 817.895 Z" fill-rule="evenodd" clip-path="url(#clipPath2)" stroke="none"/>
    </g>
    <g text-rendering="geometricPrecision" stroke-miterlimit="1.45" shape-rendering="geometricPrecision" transform="matrix(1,0,0,1,21,-153)" stroke-linecap="butt">
      <path fill="none" d="M317.5625 759.905 L358.5675 718.9 L416.5575 718.9 L457.5625 759.905 L457.5625 817.895 L416.5575 858.9 L358.5675 858.9 L317.5625 817.895 Z" fill-rule="evenodd" clip-path="url(#clipPath2)"/>
      <text x="345.542" xml:space="preserve" y="793.6139" clip-path="url(#clipPath2)" font-family="sans-serif" stroke="none">No Vulnerability</text>
      <path fill="none" d="M387.5625 571.6 L387.5625 606.7357" clip-path="url(#clipPath2)"/>
      <path d="M387.5625 614.7357 L392.5625 602.7357 L387.5625 605.7357 L382.5625 602.7357 Z" clip-path="url(#clipPath2)" stroke="none"/>
      <text x="222.5566" xml:space="preserve" y="597.8639" clip-path="url(#clipPath2)" font-family="sans-serif" stroke="none">Taint Sink: Database Engine</text>
      <path fill="none" d="M319.2925 486.1 L355.7386 486.1 L355.7386 520.5663" clip-path="url(#clipPath2)"/>
      <path d="M355.7386 528.5663 L360.7386 516.5663 L355.7386 519.5663 L350.7386 516.5663 Z" clip-path="url(#clipPath2)" stroke="none"/>
      <path fill="none" d="M387.5625 679.8998 L387.5625 710.8855" clip-path="url(#clipPath2)"/>
      <path d="M387.5625 718.8855 L392.5625 706.8855 L387.5625 709.8855 L382.5625 706.8855 Z" clip-path="url(#clipPath2)" stroke="none"/>
    </g>
    <g fill="rgb(245,245,245)" text-rendering="geometricPrecision" shape-rendering="geometricPrecision" transform="matrix(1,0,0,1,21,-153)" stroke="rgb(245,245,245)">
      <rect x="111.1725" y="168.4235" clip-path="url(#clipPath2)" width="515.18" rx="4" ry="4" height="195.2565" stroke="none"/>
      <rect x="111.1725" y="168.4235" clip-path="url(#clipPath2)" fill="rgb(235,235,235)" width="515.18" height="22.3765" stroke="none"/>
    </g>
    <g font-size="15px" stroke-linecap="butt" transform="matrix(1,0,0,1,21,-153)" text-rendering="geometricPrecision" font-family="sans-serif" shape-rendering="geometricPrecision" stroke-miterlimit="1.45">
      <text x="538.4687" xml:space="preserve" y="185.5041" clip-path="url(#clipPath2)" stroke="none">Tainted Data</text>
      <rect x="111.1725" y="168.4235" clip-path="url(#clipPath2)" fill="none" width="515.18" stroke-dasharray="6,2" rx="4" ry="4" height="195.2565"/>
    </g>
    <g fill="rgb(255,204,0)" text-rendering="geometricPrecision" shape-rendering="geometricPrecision" transform="matrix(1,0,0,1,21,-153)" stroke="rgb(255,204,0)">
      <rect x="236.5625" width="302" height="61" y="205.8" clip-path="url(#clipPath2)" stroke="none"/>
      <rect x="236.5625" y="205.8" clip-path="url(#clipPath2)" fill="yellow" width="1" height="61" stroke="none"/>
      <rect x="237.5625" y="205.8" clip-path="url(#clipPath2)" fill="yellow" width="300" height="1" stroke="none"/>
      <rect x="237.5625" y="265.8" clip-path="url(#clipPath2)" fill="rgb(178,142,0)" width="301" height="1" stroke="none"/>
      <rect x="537.5625" y="205.8" clip-path="url(#clipPath2)" fill="rgb(178,142,0)" width="1" height="60" stroke="none"/>
    </g>
    <g text-rendering="geometricPrecision" stroke-miterlimit="1.45" shape-rendering="geometricPrecision" font-family="sans-serif" transform="matrix(1,0,0,1,21,-153)" stroke-linecap="butt">
      <text x="337.0664" xml:space="preserve" y="233.6633" clip-path="url(#clipPath2)" stroke="none">Data from a user's </text>
      <text x="350.2178" xml:space="preserve" y="248.3645" clip-path="url(#clipPath2)" stroke="none">HTTP request</text>
    </g>
    <g fill="rgb(255,204,0)" text-rendering="geometricPrecision" shape-rendering="geometricPrecision" transform="matrix(1,0,0,1,21,-153)" stroke="rgb(255,204,0)">
      <rect x="163.7725" width="447.58" height="43" y="305.68" clip-path="url(#clipPath2)" stroke="none"/>
    </g>
    <g text-rendering="geometricPrecision" stroke-miterlimit="1.45" shape-rendering="geometricPrecision" transform="matrix(1,0,0,1,21,-153)" stroke-linecap="butt">
      <rect fill="none" x="163.7725" width="447.58" height="43" y="305.68" clip-path="url(#clipPath2)"/>
      <text x="262.207" xml:space="preserve" y="331.1175" clip-path="url(#clipPath2)" font-family="'Consolas'" stroke="none">var username = Request.get("username")</text>
      <path fill="none" d="M387.5625 266.7856 L387.5625 297.68" clip-path="url(#clipPath2)"/>
      <path d="M387.5625 305.68 L392.5625 293.68 L387.5625 296.68 L382.5625 293.68 Z" clip-path="url(#clipPath2)" stroke="none"/>
      <text x="143.8724" xml:space="preserve" y="290.9539" clip-path="url(#clipPath2)" font-family="sans-serif" stroke="none">Taint Source: Data coming from the network</text>
      <path fill="none" d="M387.5625 348.68 L387.5625 520.6" clip-path="url(#clipPath2)"/>
      <path d="M387.5625 528.6 L392.5625 516.6 L387.5625 519.6 L382.5625 516.6 Z" clip-path="url(#clipPath2)" stroke="none"/>
      <rect x="195.1855" y="405.3312" clip-path="url(#clipPath2)" fill="silver" width="180.7539" height="18.7012" stroke="none"/>
      <text x="197.1855" y="419.3956" clip-path="url(#clipPath2)" fill="rgb(0,51,0)" font-family="sans-serif" stroke="none" xml:space="preserve">Taint Cleansed: Bind Parameters</text>
    </g>
  </g>
</svg>
