<?xml version="1.0" encoding="UTF-8"?><svg xmlns="http://www.w3.org/2000/svg" xmlns:xlink="http://www.w3.org/1999/xlink" fill-opacity="1" color-rendering="auto" color-interpolation="auto" text-rendering="auto" stroke="black" stroke-linecap="square" width="501" stroke-miterlimit="10" shape-rendering="auto" stroke-opacity="1" fill="black" stroke-dasharray="none" font-weight="normal" stroke-width="1" height="691" font-family="'Dialog'" font-style="normal" stroke-linejoin="miter" font-size="12px" stroke-dashoffset="0" image-rendering="auto">
  <!--Generated by ySVG 2.5-->
  <defs id="genericDefs"/>
  <g>
    <defs id="defs1">
      <clipPath clipPathUnits="userSpaceOnUse" id="clipPath1">
        <path d="M0 0 L501 0 L501 691 L0 691 L0 0 Z"/>
      </clipPath>
      <clipPath clipPathUnits="userSpaceOnUse" id="clipPath2">
        <path d="M126 301 L627 301 L627 992 L126 992 L126 301 Z"/>
      </clipPath>
    </defs>
    <g fill="rgb(255,204,0)" text-rendering="geometricPrecision" shape-rendering="geometricPrecision" transform="matrix(1,0,0,1,-126,-301)" stroke="rgb(255,204,0)">
      <rect x="236.5625" width="302" height="61" y="316.52" clip-path="url(#clipPath2)" stroke="none"/>
    </g>
    <g fill="yellow" text-rendering="geometricPrecision" shape-rendering="geometricPrecision" transform="matrix(1,0,0,1,-126,-301)" stroke="yellow">
      <rect x="236.5625" width="1" height="61" y="316.52" clip-path="url(#clipPath2)" stroke="none"/>
      <rect x="237.5625" width="300" height="1" y="316.52" clip-path="url(#clipPath2)" stroke="none"/>
      <rect x="237.5625" y="376.52" clip-path="url(#clipPath2)" fill="rgb(178,142,0)" width="301" height="1" stroke="none"/>
      <rect x="537.5625" y="316.52" clip-path="url(#clipPath2)" fill="rgb(178,142,0)" width="1" height="60" stroke="none"/>
    </g>
    <g text-rendering="geometricPrecision" stroke-miterlimit="1.45" shape-rendering="geometricPrecision" font-family="sans-serif" transform="matrix(1,0,0,1,-126,-301)" stroke-linecap="butt">
      <text x="337.0664" xml:space="preserve" y="344.3833" clip-path="url(#clipPath2)" stroke="none">Data from a user's </text>
      <text x="350.2178" xml:space="preserve" y="359.0844" clip-path="url(#clipPath2)" stroke="none">HTTP request</text>
    </g>
    <g fill="rgb(255,204,0)" text-rendering="geometricPrecision" shape-rendering="geometricPrecision" transform="matrix(1,0,0,1,-126,-301)" stroke="rgb(255,204,0)">
      <rect x="163.7725" width="447.58" height="43" y="416.4" clip-path="url(#clipPath2)" stroke="none"/>
    </g>
    <g text-rendering="geometricPrecision" stroke-miterlimit="1.45" shape-rendering="geometricPrecision" transform="matrix(1,0,0,1,-126,-301)" stroke-linecap="butt">
      <rect fill="none" x="163.7725" width="447.58" height="43" y="416.4" clip-path="url(#clipPath2)"/>
      <text x="262.207" xml:space="preserve" y="441.8375" clip-path="url(#clipPath2)" font-family="'Consolas'" stroke="none">var username = Request.get("username")</text>
    </g>
    <g fill="rgb(255,204,0)" text-rendering="geometricPrecision" shape-rendering="geometricPrecision" transform="matrix(1,0,0,1,-126,-301)" stroke="rgb(255,204,0)">
      <rect x="236.5625" width="302" height="65.2" y="718.7" clip-path="url(#clipPath2)" stroke="none"/>
      <rect x="236.5625" y="718.7" clip-path="url(#clipPath2)" fill="yellow" width="1" height="65.2" stroke="none"/>
      <rect x="237.5625" y="718.7" clip-path="url(#clipPath2)" fill="yellow" width="300" height="1" stroke="none"/>
      <rect x="237.5625" y="782.9" clip-path="url(#clipPath2)" fill="rgb(178,142,0)" width="301" height="1" stroke="none"/>
      <rect x="537.5625" y="718.7" clip-path="url(#clipPath2)" fill="rgb(178,142,0)" width="1" height="64.2" stroke="none"/>
    </g>
    <g text-rendering="geometricPrecision" stroke-miterlimit="1.45" shape-rendering="geometricPrecision" font-family="sans-serif" transform="matrix(1,0,0,1,-126,-301)" stroke-linecap="butt">
      <text x="298.8398" xml:space="preserve" y="756.0139" clip-path="url(#clipPath2)" stroke="none">Send SQL command to database</text>
    </g>
    <g fill="rgb(255,204,0)" text-rendering="geometricPrecision" shape-rendering="geometricPrecision" transform="matrix(1,0,0,1,-126,-301)" stroke="rgb(255,204,0)">
      <rect x="163.7725" width="447.58" height="43" y="489.4" clip-path="url(#clipPath2)" stroke="none"/>
    </g>
    <g text-rendering="geometricPrecision" stroke-miterlimit="1.45" shape-rendering="geometricPrecision" transform="matrix(1,0,0,1,-126,-301)" stroke-linecap="butt">
      <rect fill="none" x="163.7725" width="447.58" height="43" y="489.4" clip-path="url(#clipPath2)"/>
      <text x="331.4824" xml:space="preserve" y="508.8375" clip-path="url(#clipPath2)" font-family="'Consolas'" stroke="none">var sqlcommand = </text>
      <text x="189.6328" xml:space="preserve" y="520.8375" clip-path="url(#clipPath2)" font-family="'Consolas'" stroke="none">"SELECT * FROM usernames WHERE username = " + username + ";"</text>
    </g>
    <g fill="rgb(153,51,0)" text-rendering="geometricPrecision" shape-rendering="geometricPrecision" transform="matrix(1,0,0,1,-126,-301)" stroke="rgb(153,51,0)">
      <path d="M312.5125 863.3829 L359.3754 816.52 L425.6496 816.52 L472.5125 863.3829 L472.5125 929.6571 L425.6496 976.52 L359.3754 976.52 L312.5125 929.6571 Z" fill-rule="evenodd" clip-path="url(#clipPath2)" stroke="none"/>
    </g>
    <g text-rendering="geometricPrecision" stroke-miterlimit="1.45" shape-rendering="geometricPrecision" transform="matrix(1,0,0,1,-126,-301)" stroke-linecap="butt">
      <path fill="none" d="M312.5125 863.3829 L359.3754 816.52 L425.6496 816.52 L472.5125 863.3829 L472.5125 929.6571 L425.6496 976.52 L359.3754 976.52 L312.5125 929.6571 Z" fill-rule="evenodd" clip-path="url(#clipPath2)"/>
    </g>
    <g stroke-linecap="butt" font-size="20px" transform="matrix(1,0,0,1,-126,-301)" fill="white" text-rendering="geometricPrecision" font-family="sans-serif" shape-rendering="geometricPrecision" stroke="white" stroke-miterlimit="1.45">
      <text x="332.4832" xml:space="preserve" y="892.1255" clip-path="url(#clipPath2)" stroke="none">Vulnerability: </text>
      <text x="332.4783" xml:space="preserve" y="916.6274" clip-path="url(#clipPath2)" stroke="none">SQL Injection</text>
    </g>
    <g fill="rgb(255,204,0)" text-rendering="geometricPrecision" shape-rendering="geometricPrecision" transform="matrix(1,0,0,1,-126,-301)" stroke="rgb(255,204,0)">
      <rect x="236.5625" width="302" height="43" y="568.2" clip-path="url(#clipPath2)" stroke="none"/>
      <rect x="236.5625" y="568.2" clip-path="url(#clipPath2)" fill="yellow" width="1" height="43" stroke="none"/>
      <rect x="237.5625" y="568.2" clip-path="url(#clipPath2)" fill="yellow" width="300" height="1" stroke="none"/>
      <rect x="237.5625" y="610.2" clip-path="url(#clipPath2)" fill="rgb(178,142,0)" width="301" height="1" stroke="none"/>
      <rect x="537.5625" y="568.2" clip-path="url(#clipPath2)" fill="rgb(178,142,0)" width="1" height="42" stroke="none"/>
    </g>
    <g text-rendering="geometricPrecision" stroke-miterlimit="1.45" shape-rendering="geometricPrecision" font-family="sans-serif" transform="matrix(1,0,0,1,-126,-301)" stroke-linecap="butt">
      <text x="351.2109" xml:space="preserve" y="594.4139" clip-path="url(#clipPath2)" stroke="none">String.Concat</text>
    </g>
    <g fill="rgb(255,204,0)" text-rendering="geometricPrecision" shape-rendering="geometricPrecision" transform="matrix(1,0,0,1,-126,-301)" stroke="rgb(255,204,0)">
      <rect x="163.7725" width="447.58" height="43" y="641.2" clip-path="url(#clipPath2)" stroke="none"/>
    </g>
    <g text-rendering="geometricPrecision" stroke-miterlimit="1.45" shape-rendering="geometricPrecision" transform="matrix(1,0,0,1,-126,-301)" stroke-linecap="butt">
      <rect fill="none" x="163.7725" width="447.58" height="43" y="641.2" clip-path="url(#clipPath2)"/>
      <text x="324.8848" xml:space="preserve" y="666.6375" clip-path="url(#clipPath2)" font-family="'Consolas'" stroke="none">DB.exec(sqlcommand)</text>
      <path fill="none" d="M387.5625 377.5056 L387.5625 408.4" clip-path="url(#clipPath2)"/>
      <path d="M387.5625 416.4 L392.5625 404.4 L387.5625 407.4 L382.5625 404.4 Z" clip-path="url(#clipPath2)" stroke="none"/>
      <text x="143.8724" xml:space="preserve" y="401.6739" clip-path="url(#clipPath2)" font-family="sans-serif" stroke="none">Taint Source: Data coming from the network</text>
      <path fill="none" d="M387.5625 459.4 L387.5625 481.4" clip-path="url(#clipPath2)"/>
      <path d="M387.5625 489.4 L392.5625 477.4 L387.5625 480.4 L382.5625 477.4 Z" clip-path="url(#clipPath2)" stroke="none"/>
      <text x="198.9195" xml:space="preserve" y="478.4644" clip-path="url(#clipPath2)" font-family="sans-serif" stroke="none">Taint Rule: Variable assignment</text>
      <path fill="none" d="M388.6731 783.8823 L389.5132 808.5288" clip-path="url(#clipPath2)"/>
      <path d="M389.7857 816.5242 L394.3741 804.3608 L389.4792 807.5294 L384.3799 804.7015 Z" clip-path="url(#clipPath2)" stroke="none"/>
      <path fill="none" d="M387.5625 532.4 L387.5625 560.1845" clip-path="url(#clipPath2)"/>
      <path d="M387.5625 568.1845 L392.5625 556.1845 L387.5625 559.1845 L382.5625 556.1845 Z" clip-path="url(#clipPath2)" stroke="none"/>
      <text x="175.8291" xml:space="preserve" y="555.0139" clip-path="url(#clipPath2)" font-family="sans-serif" stroke="none">Taint Rule: Tainted data concatenated</text>
      <path fill="none" d="M387.5625 611.1937 L387.5625 633.2" clip-path="url(#clipPath2)"/>
      <path d="M387.5625 641.2 L392.5625 629.2 L387.5625 632.2 L382.5625 629.2 Z" clip-path="url(#clipPath2)" stroke="none"/>
      <path fill="none" d="M387.5625 684.2 L387.5625 710.7001" clip-path="url(#clipPath2)"/>
      <path d="M387.5625 718.7001 L392.5625 706.7001 L387.5625 709.7001 L382.5625 706.7001 Z" clip-path="url(#clipPath2)" stroke="none"/>
      <text x="222.5566" xml:space="preserve" y="706.1639" clip-path="url(#clipPath2)" font-family="sans-serif" stroke="none">Taint Sink: Database Engine</text>
    </g>
  </g>
</svg>
